<?xml version="1.0" encoding="UTF-8" standalone="no" ?>
<!DOCTYPE svg PUBLIC "-//W3C//DTD SVG 1.1//EN" "http://www.w3.org/Graphics/SVG/1.1/DTD/svg11.dtd">
<svg xmlns="http://www.w3.org/2000/svg" xmlns:xlink="http://www.w3.org/1999/xlink" version="1.1" width="900" height="800" viewBox="-10 -15.56 900 800" xml:space="preserve">
<desc>Created with Fabric.js 5.2.4</desc>
<defs>
</defs>
<rect x="0" y="0" width="100%" height="100%" fill="transparent"></rect>
<g transform="matrix(1 0 0 1 450 400)" id="f067ca47-423c-4d93-9ece-c0f7b40b0683"  >
<rect style="stroke: none; stroke-width: 1; stroke-dasharray: none; stroke-linecap: butt; stroke-dashoffset: 0; stroke-linejoin: miter; stroke-miterlimit: 4; fill: rgb(255,255,255); fill-rule: nonzero; opacity: 1; visibility: hidden;" vector-effect="non-scaling-stroke"  x="-450" y="-400" rx="0" ry="0" width="900" height="800" />
</g>
<g transform="matrix(Infinity NaN NaN Infinity 0 0)" id="abdcb372-38ae-4aab-8376-d473c0974cd6"  >
</g>
<g transform="matrix(1.61 0 0 1.61 450 379.64)"  >
<g style="" vector-effect="non-scaling-stroke"   >
		<g transform="matrix(1 0 0 1 -225.95 -196.85)"  >
<rect style="stroke: none; stroke-width: 1; stroke-dasharray: none; stroke-linecap: butt; stroke-dashoffset: 0; stroke-linejoin: miter; stroke-miterlimit: 4; fill: rgb(255,255,255); fill-opacity: 0; fill-rule: nonzero; opacity: 1;" vector-effect="non-scaling-stroke"  x="-50" y="-50" rx="0" ry="0" width="100" height="100" />
</g>
		<g transform="matrix(1 0 0 1 -235.13 131.24)"  >
<path style="stroke: none; stroke-width: 1; stroke-dasharray: none; stroke-linecap: butt; stroke-dashoffset: 0; stroke-linejoin: miter; stroke-miterlimit: 4; fill: rgb(161,2,23); fill-rule: nonzero; opacity: 1;" vector-effect="non-scaling-stroke"  transform=" translate(-40.83, -378.09)" d="M 13.22 368.418 L 13.22 413.688 L 5.59 413.688 L 5.59 342.498 L 18.03 342.498 L 40.59 401.248 L 40.970000000000006 401.248 L 63.690000000000005 342.498 L 76.07000000000001 342.498 L 76.07000000000001 413.688 L 67.8 413.688 L 67.8 367.818 Q 67.8 359.59799999999996 68.5 350.668 L 68.07 350.668 L 43.72999999999999 413.688 L 37.06999999999999 413.688 L 12.949999999999992 350.618 L 12.569999999999991 350.618 Q 13.219999999999992 358.078 13.219999999999992 368.418" stroke-linecap="round" />
</g>
		<g transform="matrix(1 0 0 1 -234.63 131.75)"  >
<rect style="stroke: none; stroke-width: 1; stroke-dasharray: none; stroke-linecap: butt; stroke-dashoffset: 0; stroke-linejoin: miter; stroke-miterlimit: 4; fill: none; fill-rule: nonzero; opacity: 1;" vector-effect="non-scaling-stroke"  x="-35.24" y="-35.595" rx="0" ry="0" width="70.48" height="71.19" />
</g>
		<g transform="matrix(1 0 0 1 -160.53 131.24)"  >
<path style="stroke: none; stroke-width: 1; stroke-dasharray: none; stroke-linecap: butt; stroke-dashoffset: 0; stroke-linejoin: miter; stroke-miterlimit: 4; fill: rgb(161,2,23); fill-rule: nonzero; opacity: 1;" vector-effect="non-scaling-stroke"  transform=" translate(-115.42, -378.09)" d="M 135.25 406.278 L 135.25 413.68800000000005 L 95.6 413.68800000000005 L 95.6 342.49800000000005 L 135.25 342.49800000000005 L 135.25 349.85800000000006 L 103.88 349.85800000000006 L 103.88 372.79800000000006 L 133.35999999999999 372.79800000000006 L 133.35999999999999 380.09800000000007 L 103.87999999999998 380.09800000000007 L 103.87999999999998 406.2780000000001 Z" stroke-linecap="round" />
</g>
		<g transform="matrix(1 0 0 1 -160.03 131.75)"  >
<rect style="stroke: none; stroke-width: 1; stroke-dasharray: none; stroke-linecap: butt; stroke-dashoffset: 0; stroke-linejoin: miter; stroke-miterlimit: 4; fill: none; fill-rule: nonzero; opacity: 1;" vector-effect="non-scaling-stroke"  x="-19.825" y="-35.595" rx="0" ry="0" width="39.65" height="71.19" />
</g>
		<g transform="matrix(1 0 0 1 -96.5 131.24)"  >
<path style="stroke: none; stroke-width: 1; stroke-dasharray: none; stroke-linecap: butt; stroke-dashoffset: 0; stroke-linejoin: miter; stroke-miterlimit: 4; fill: rgb(161,2,23); fill-rule: nonzero; opacity: 1;" vector-effect="non-scaling-stroke"  transform=" translate(-179.45, -378.09)" d="M 198.65 351.698 L 203.25 356.298 Q 207.85 360.898 207.85 377.988 Q 207.85 395.078 198.29999999999998 404.388 Q 188.74999999999997 413.688 170.73999999999998 413.688 L 151.04999999999998 413.688 L 151.04999999999998 342.498 L 172.85 342.498 Q 189.45999999999998 342.498 198.65 351.698 M 169.39000000000001 406.548 Q 184.16000000000003 406.548 191.62 399.278 Q 199.09 391.99800000000005 199.09 377.908 Q 199.09 363.818 192.11 356.75800000000004 Q 185.13000000000002 349.69800000000004 171.34 349.69800000000004 L 159.33 349.69800000000004 L 159.33 406.54800000000006 Z" stroke-linecap="round" />
</g>
		<g transform="matrix(1 0 0 1 -96 131.75)"  >
<rect style="stroke: none; stroke-width: 1; stroke-dasharray: none; stroke-linecap: butt; stroke-dashoffset: 0; stroke-linejoin: miter; stroke-miterlimit: 4; fill: none; fill-rule: nonzero; opacity: 1;" vector-effect="non-scaling-stroke"  x="-28.4" y="-35.595" rx="0" ry="0" width="56.8" height="71.19" />
</g>
		<g transform="matrix(1 0 0 1 -48.07 131.24)"  >
<path style="stroke: none; stroke-width: 1; stroke-dasharray: none; stroke-linecap: butt; stroke-dashoffset: 0; stroke-linejoin: miter; stroke-miterlimit: 4; fill: rgb(161,2,23); fill-rule: nonzero; opacity: 1;" vector-effect="non-scaling-stroke"  transform=" translate(-227.89, -378.09)" d="M 232.03 413.688 L 223.75 413.688 L 223.75 342.498 L 232.03 342.498 Z" stroke-linecap="round" />
</g>
		<g transform="matrix(1 0 0 1 -47.57 131.75)"  >
<rect style="stroke: none; stroke-width: 1; stroke-dasharray: none; stroke-linecap: butt; stroke-dashoffset: 0; stroke-linejoin: miter; stroke-miterlimit: 4; fill: none; fill-rule: nonzero; opacity: 1;" vector-effect="non-scaling-stroke"  x="-4.14" y="-35.595" rx="0" ry="0" width="8.28" height="71.19" />
</g>
		<g transform="matrix(1 0 0 1 -6.65 131.22)"  >
<path style="stroke: none; stroke-width: 1; stroke-dasharray: none; stroke-linecap: butt; stroke-dashoffset: 0; stroke-linejoin: miter; stroke-miterlimit: 4; fill: rgb(161,2,23); fill-rule: nonzero; opacity: 1;" vector-effect="non-scaling-stroke"  transform=" translate(-269.3, -378.07)" d="M 291.7 394.758 Q 291.7 404.168 284.90999999999997 409.418 Q 278.11999999999995 414.668 265.91999999999996 414.668 Q 253.71999999999997 414.668 246.90999999999997 411.418 L 246.90999999999997 403.408 Q 256.53999999999996 407.418 266.71 407.418 Q 274.87 407.418 279.12 404.32800000000003 Q 283.37 401.24800000000005 283.37 395.51800000000003 Q 283.37 391.838 281.88 389.50800000000004 Q 280.39 387.18800000000005 276.88 385.12800000000004 Q 273.36 383.07800000000003 266.33 380.588 Q 256.43 377.06800000000004 252.13 372.19800000000004 Q 247.82999999999998 367.32800000000003 247.82999999999998 359.26800000000003 Q 247.82999999999998 351.208 253.98999999999998 346.338 Q 260.27 341.478 270.63 341.478 Q 280.99 341.478 289.90999999999997 345.368 L 287.32 352.618 Q 278.5 348.888 270.21999999999997 348.888 Q 263.61999999999995 348.888 259.91999999999996 351.72799999999995 Q 256.21 354.5679999999999 256.21 359.53799999999995 Q 256.21 363.328 257.53999999999996 365.59799999999996 Q 258.85999999999996 367.86799999999994 262.15999999999997 369.97799999999995 Q 265.57 372.03799999999995 272.10999999999996 374.30799999999994 Q 283.36999999999995 378.30799999999994 287.47999999999996 382.90799999999996 Q 291.7 387.45799999999997 291.7 394.758" stroke-linecap="round" />
</g>
		<g transform="matrix(1 0 0 1 -6.15 131.72)"  >
<rect style="stroke: none; stroke-width: 1; stroke-dasharray: none; stroke-linecap: butt; stroke-dashoffset: 0; stroke-linejoin: miter; stroke-miterlimit: 4; fill: none; fill-rule: nonzero; opacity: 1;" vector-effect="non-scaling-stroke"  x="-22.395" y="-36.595" rx="0" ry="0" width="44.79" height="73.19" />
</g>
		<g transform="matrix(1 0 0 1 48.12 131.24)"  >
<path style="stroke: none; stroke-width: 1; stroke-dasharray: none; stroke-linecap: butt; stroke-dashoffset: 0; stroke-linejoin: miter; stroke-miterlimit: 4; fill: rgb(161,2,23); fill-rule: nonzero; opacity: 1;" vector-effect="non-scaling-stroke"  transform=" translate(-324.07, -378.09)" d="M 328.21 349.858 L 328.21 413.688 L 319.94 413.688 L 319.94 349.858 L 297.38 349.858 L 297.38 342.498 L 350.77 342.498 L 350.77 349.858 Z" stroke-linecap="round" />
</g>
		<g transform="matrix(1 0 0 1 48.61 131.75)"  >
<rect style="stroke: none; stroke-width: 1; stroke-dasharray: none; stroke-linecap: butt; stroke-dashoffset: 0; stroke-linejoin: miter; stroke-miterlimit: 4; fill: none; fill-rule: nonzero; opacity: 1;" vector-effect="non-scaling-stroke"  x="-26.695" y="-35.595" rx="0" ry="0" width="53.39" height="71.19" />
</g>
		<g transform="matrix(1 0 0 1 112.55 131.19)"  >
<path style="stroke: none; stroke-width: 1; stroke-dasharray: none; stroke-linecap: butt; stroke-dashoffset: 0; stroke-linejoin: miter; stroke-miterlimit: 4; fill: rgb(161,2,23); fill-rule: nonzero; opacity: 1;" vector-effect="non-scaling-stroke"  transform=" translate(-388.5, -378.04)" d="M 364.29 405.088 Q 355.75 395.408 355.75 377.958 Q 355.75 360.51800000000003 364.32 350.968 Q 372.89 341.418 388.45 341.418 Q 404 341.418 412.63 351.128 Q 421.26 360.83799999999997 421.26 377.95799999999997 Q 421.26 395.078 412.59999999999997 404.878 Q 403.93999999999994 414.668 388.39 414.668 Q 372.84000000000003 414.668 364.28999999999996 405.088 M 406.48999999999995 356.18800000000005 L 403.47999999999996 352.47800000000007 Q 400.47999999999996 348.7780000000001 388.65999999999997 348.7780000000001 Q 376.84 348.7780000000001 370.67999999999995 356.23800000000006 Q 364.50999999999993 363.7080000000001 364.50999999999993 378.06800000000004 Q 364.50999999999993 392.428 370.67999999999995 399.92800000000005 Q 376.84 407.41800000000006 388.63999999999993 407.41800000000006 Q 400.42999999999995 407.41800000000006 406.4599999999999 399.97800000000007 Q 412.4899999999999 392.53800000000007 412.4899999999999 378.06800000000004 Q 412.4899999999999 363.598 406.4899999999999 356.18800000000005" stroke-linecap="round" />
</g>
		<g transform="matrix(1 0 0 1 113.04 131.68)"  >
<rect style="stroke: none; stroke-width: 1; stroke-dasharray: none; stroke-linecap: butt; stroke-dashoffset: 0; stroke-linejoin: miter; stroke-miterlimit: 4; fill: none; fill-rule: nonzero; opacity: 1;" vector-effect="non-scaling-stroke"  x="-32.755" y="-36.625" rx="0" ry="0" width="65.51" height="73.25" />
</g>
		<g transform="matrix(1 0 0 1 184.35 131.21)"  >
<path style="stroke: none; stroke-width: 1; stroke-dasharray: none; stroke-linecap: butt; stroke-dashoffset: 0; stroke-linejoin: miter; stroke-miterlimit: 4; fill: rgb(161,2,23); fill-rule: nonzero; opacity: 1;" vector-effect="non-scaling-stroke"  transform=" translate(-460.3, -378.07)" d="M 467.56 348.888 Q 455.82 348.888 449.03 356.72799999999995 Q 442.23999999999995 364.5679999999999 442.23999999999995 378.33799999999997 Q 442.23999999999995 392.108 448.78999999999996 399.70799999999997 Q 455.33 407.308 467.45 407.308 Q 475.03 407.308 484.49 404.658 L 484.49 411.908 Q 477.08 414.668 466.21000000000004 414.668 Q 450.47 414.668 441.92 405.148 Q 433.37 395.51800000000003 433.37 377.988 Q 433.32 369.878 435.73 363.028 Q 438.13 356.18800000000005 442.57 351.428 Q 447 346.668 453.44 344.048 Q 459.88 341.418 467.67 341.478 Q 478.97 341.478 487.25 345.588 L 483.73 352.668 Q 475.78000000000003 348.88800000000003 467.56 348.88800000000003" stroke-linecap="round" />
</g>
		<g transform="matrix(1 0 0 1 184.84 131.71)"  >
<rect style="stroke: none; stroke-width: 1; stroke-dasharray: none; stroke-linecap: butt; stroke-dashoffset: 0; stroke-linejoin: miter; stroke-miterlimit: 4; fill: none; fill-rule: nonzero; opacity: 1;" vector-effect="non-scaling-stroke"  x="-26.945" y="-36.6" rx="0" ry="0" width="53.89" height="73.2" />
</g>
		<g transform="matrix(1 0 0 1 249.76 131.24)"  >
<path style="stroke: none; stroke-width: 1; stroke-dasharray: none; stroke-linecap: butt; stroke-dashoffset: 0; stroke-linejoin: miter; stroke-miterlimit: 4; fill: rgb(161,2,23); fill-rule: nonzero; opacity: 1;" vector-effect="non-scaling-stroke"  transform=" translate(-525.72, -378.09)" d="M 508.29 413.688 L 500.02000000000004 413.688 L 500.02000000000004 342.498 L 508.29 342.498 L 508.29 377.828 L 540.59 342.498 L 550.33 342.498 L 521.71 373.448 L 551.4100000000001 413.688 L 541.6700000000001 413.688 L 515.7600000000001 379.178 L 508.2900000000001 385.778 Z" stroke-linecap="round" />
</g>
		<g transform="matrix(1 0 0 1 250.26 131.75)"  >
<rect style="stroke: none; stroke-width: 1; stroke-dasharray: none; stroke-linecap: butt; stroke-dashoffset: 0; stroke-linejoin: miter; stroke-miterlimit: 4; fill: none; fill-rule: nonzero; opacity: 1;" vector-effect="non-scaling-stroke"  x="-25.695" y="-35.595" rx="0" ry="0" width="51.39" height="71.19" />
</g>
		<g transform="matrix(1 0 0 1 -161.83 226.84)"  >
<path style="stroke: none; stroke-width: 1; stroke-dasharray: none; stroke-linecap: butt; stroke-dashoffset: 0; stroke-linejoin: miter; stroke-miterlimit: 4; fill: rgb(161,2,23); fill-rule: nonzero; opacity: 1;" vector-effect="non-scaling-stroke"  transform=" translate(-114.13, -473.69)" d="M 102.63 473.678 Q 102.63 467.638 105.72999999999999 464.058 Q 108.82999999999998 460.488 114.10999999999999 460.488 Q 119.49999999999999 460.488 122.55999999999999 464.038 Q 125.61999999999999 467.598 125.61999999999999 473.678 Q 125.61999999999999 479.718 122.52 483.308 Q 119.42999999999999 486.89799999999997 114.14999999999999 486.89799999999997 Q 108.94 486.89799999999997 105.78999999999999 483.28799999999995 Q 102.63 479.67799999999994 102.63 473.67799999999994 M 105.86 473.67799999999994 Q 105.86 478.42799999999994 108.12 481.1979999999999 Q 110.38000000000001 483.9779999999999 114.15 483.9779999999999 Q 118.06 483.9779999999999 120.21000000000001 481.2379999999999 Q 122.35000000000001 478.4979999999999 122.35000000000001 473.6779999999999 Q 122.35000000000001 468.8479999999999 120.19000000000001 466.1179999999999 Q 118.02000000000001 463.3779999999999 114.11000000000001 463.3779999999999 Q 110.23000000000002 463.3779999999999 108.05000000000001 466.1279999999999 Q 105.86000000000001 468.88799999999986 105.86000000000001 473.6779999999999" stroke-linecap="round" />
</g>
		<g transform="matrix(1 0 0 1 -161.32 227.34)"  >
<rect style="stroke: none; stroke-width: 1; stroke-dasharray: none; stroke-linecap: butt; stroke-dashoffset: 0; stroke-linejoin: miter; stroke-miterlimit: 4; fill: none; fill-rule: nonzero; opacity: 1;" vector-effect="non-scaling-stroke"  x="-11.495" y="-13.205" rx="0" ry="0" width="22.99" height="26.41" />
</g>
		<g transform="matrix(1 0 0 1 -141.61 230.01)"  >
<path style="stroke: none; stroke-width: 1; stroke-dasharray: none; stroke-linecap: butt; stroke-dashoffset: 0; stroke-linejoin: miter; stroke-miterlimit: 4; fill: rgb(161,2,23); fill-rule: nonzero; opacity: 1;" vector-effect="non-scaling-stroke"  transform=" translate(-134.34, -476.87)" d="M 132.69 467.328 L 132.69 470.70799999999997 Q 134.21 467.138 137.93 467.138 Q 138.62 467.138 139 467.21799999999996 L 139 470.17799999999994 Q 138.2 469.91799999999995 137.36 469.91799999999995 Q 135.35000000000002 469.91799999999995 134.02 471.77799999999996 Q 132.69 473.638 132.69 476.068 L 132.69 486.59799999999996 L 129.69 486.59799999999996 L 129.73 467.328 Z" stroke-linecap="round" />
</g>
		<g transform="matrix(1 0 0 1 -141.12 230.51)"  >
<rect style="stroke: none; stroke-width: 1; stroke-dasharray: none; stroke-linecap: butt; stroke-dashoffset: 0; stroke-linejoin: miter; stroke-miterlimit: 4; fill: none; fill-rule: nonzero; opacity: 1;" vector-effect="non-scaling-stroke"  x="-4.655" y="-9.73" rx="0" ry="0" width="9.31" height="19.46" />
</g>
		<g transform="matrix(1 0 0 1 -126.86 226.46)"  >
<path style="stroke: none; stroke-width: 1; stroke-dasharray: none; stroke-linecap: butt; stroke-dashoffset: 0; stroke-linejoin: miter; stroke-miterlimit: 4; fill: rgb(161,2,23); fill-rule: nonzero; opacity: 1;" vector-effect="non-scaling-stroke"  transform=" translate(-149.09, -473.31)" d="M 148.99 484.168 Q 151.35000000000002 484.168 153 482.418 Q 154.64999999999998 480.668 154.65 476.82800000000003 Q 154.65 473.17800000000005 152.94 471.468 Q 151.23 469.75800000000004 149.18 469.75800000000004 Q 146.79000000000002 469.75800000000004 145.21 471.67800000000005 Q 143.63 473.59800000000007 143.63 477.16800000000006 Q 143.63 480.28800000000007 145.15 482.22800000000007 Q 146.67000000000002 484.16800000000006 148.99 484.16800000000006 M 154.65 459.72800000000007 L 157.66 459.72800000000007 L 157.66 486.59800000000007 L 154.65 486.59800000000007 L 154.65 483.74800000000005 Q 152.6 486.898 148.73000000000002 486.898 Q 144.89000000000001 486.898 142.70000000000002 484.048 Q 140.52 481.198 140.52 477.138 Q 140.52 472.608 142.84 469.818 Q 145.15 467.02799999999996 148.8 467.02799999999996 Q 152.56 467.02799999999996 154.65 470.258 Z" stroke-linecap="round" />
</g>
		<g transform="matrix(1 0 0 1 -126.36 226.95)"  >
<rect style="stroke: none; stroke-width: 1; stroke-dasharray: none; stroke-linecap: butt; stroke-dashoffset: 0; stroke-linejoin: miter; stroke-miterlimit: 4; fill: none; fill-rule: nonzero; opacity: 1;" vector-effect="non-scaling-stroke"  x="-8.57" y="-13.585" rx="0" ry="0" width="17.14" height="27.17" />
</g>
		<g transform="matrix(1 0 0 1 -106.14 230.09)"  >
<path style="stroke: none; stroke-width: 1; stroke-dasharray: none; stroke-linecap: butt; stroke-dashoffset: 0; stroke-linejoin: miter; stroke-miterlimit: 4; fill: rgb(161,2,23); fill-rule: nonzero; opacity: 1;" vector-effect="non-scaling-stroke"  transform=" translate(-169.81, -476.94)" d="M 175.02 475.728 L 175.02 474.968 Q 175.02 472.57800000000003 173.73000000000002 471.148 Q 172.44000000000003 469.728 170.16000000000003 469.728 Q 167.99000000000004 469.728 166.47000000000003 471.278 Q 164.95000000000002 472.838 164.69000000000003 475.728 Z M 176.81 482.798 L 176.81 485.608 Q 174.57 486.788 171.34 486.788 Q 166.97 486.788 164.29 484.108 Q 161.60999999999999 481.428 161.60999999999999 477.01800000000003 Q 161.60999999999999 472.418 163.99999999999997 469.75800000000004 Q 166.39999999999998 467.098 170.15999999999997 467.098 Q 173.76999999999998 467.098 175.89999999999998 469.418 Q 178.01999999999998 471.738 178.01999999999998 475.998 Q 178.01999999999998 477.20799999999997 177.82999999999998 478.238 L 164.69 478.238 Q 165.03 481.088 166.85 482.608 Q 168.68 484.128 171.64 484.128 Q 174.86999999999998 484.128 176.80999999999997 482.798" stroke-linecap="round" />
</g>
		<g transform="matrix(1 0 0 1 -105.65 230.58)"  >
<rect style="stroke: none; stroke-width: 1; stroke-dasharray: none; stroke-linecap: butt; stroke-dashoffset: 0; stroke-linejoin: miter; stroke-miterlimit: 4; fill: none; fill-rule: nonzero; opacity: 1;" vector-effect="non-scaling-stroke"  x="-8.205" y="-9.845" rx="0" ry="0" width="16.41" height="19.69" />
</g>
		<g transform="matrix(1 0 0 1 -89.21 230.01)"  >
<path style="stroke: none; stroke-width: 1; stroke-dasharray: none; stroke-linecap: butt; stroke-dashoffset: 0; stroke-linejoin: miter; stroke-miterlimit: 4; fill: rgb(161,2,23); fill-rule: nonzero; opacity: 1;" vector-effect="non-scaling-stroke"  transform=" translate(-186.75, -476.87)" d="M 185.09 467.328 L 185.09 470.70799999999997 Q 186.61 467.138 190.34 467.138 Q 191.02 467.138 191.4 467.21799999999996 L 191.4 470.17799999999994 Q 190.6 469.91799999999995 189.77 469.91799999999995 Q 187.75 469.91799999999995 186.42000000000002 471.77799999999996 Q 185.09000000000003 473.638 185.09 476.068 L 185.09 486.59799999999996 L 182.09 486.59799999999996 L 182.13 467.328 Z" stroke-linecap="round" />
</g>
		<g transform="matrix(1 0 0 1 -88.71 230.51)"  >
<rect style="stroke: none; stroke-width: 1; stroke-dasharray: none; stroke-linecap: butt; stroke-dashoffset: 0; stroke-linejoin: miter; stroke-miterlimit: 4; fill: none; fill-rule: nonzero; opacity: 1;" vector-effect="non-scaling-stroke"  x="-4.655" y="-9.73" rx="0" ry="0" width="9.31" height="19.46" />
</g>
		<g transform="matrix(1 0 0 1 -60.8 230.11)"  >
<path style="stroke: none; stroke-width: 1; stroke-dasharray: none; stroke-linecap: butt; stroke-dashoffset: 0; stroke-linejoin: miter; stroke-miterlimit: 4; fill: rgb(161,2,23); fill-rule: nonzero; opacity: 1;" vector-effect="non-scaling-stroke"  transform=" translate(-215.15, -476.96)" d="M 206.98 486.598 L 201.04999999999998 467.32800000000003 L 204.23999999999998 467.32800000000003 L 206.10999999999999 473.718 Q 207.08999999999997 477.058 207.76 479.548 Q 208.42 482.038 208.60999999999999 482.868 L 208.79999999999998 483.668 Q 209.36999999999998 481.238 211.57999999999998 473.678 L 213.39999999999998 467.328 L 216.58999999999997 467.328 L 218.45999999999998 473.678 L 221.30999999999997 483.70799999999997 Q 221.83999999999997 481.46799999999996 224.22999999999996 473.678 L 226.16999999999996 467.328 L 229.24999999999997 467.328 L 223.16999999999996 486.59799999999996 L 219.47999999999996 486.59799999999996 L 217.65999999999997 480.28799999999995 L 214.99999999999997 470.67799999999994 Q 214.42999999999998 473.10799999999995 212.40999999999997 480.28799999999995 L 210.66999999999996 486.59799999999996 Z" stroke-linecap="round" />
</g>
		<g transform="matrix(1 0 0 1 -60.3 230.61)"  >
<rect style="stroke: none; stroke-width: 1; stroke-dasharray: none; stroke-linecap: butt; stroke-dashoffset: 0; stroke-linejoin: miter; stroke-miterlimit: 4; fill: none; fill-rule: nonzero; opacity: 1;" vector-effect="non-scaling-stroke"  x="-14.1" y="-9.635" rx="0" ry="0" width="28.2" height="19.27" />
</g>
		<g transform="matrix(1 0 0 1 -35.83 226.31)"  >
<path style="stroke: none; stroke-width: 1; stroke-dasharray: none; stroke-linecap: butt; stroke-dashoffset: 0; stroke-linejoin: miter; stroke-miterlimit: 4; fill: rgb(161,2,23); fill-rule: nonzero; opacity: 1;" vector-effect="non-scaling-stroke"  transform=" translate(-240.12, -473.16)" d="M 235.48 459.728 L 235.48 470.678 Q 237.19 467.068 241.56 467.068 Q 244.33 467.068 246.02 468.77799999999996 Q 247.72 470.48799999999994 247.72 473.40799999999996 L 247.72 486.59799999999996 L 244.71 486.59799999999996 L 244.71 474.12799999999993 Q 244.71 472.03799999999995 243.63 470.8979999999999 Q 242.54999999999998 469.7579999999999 240.79999999999998 469.7579999999999 Q 238.67 469.7579999999999 237.07999999999998 471.3979999999999 Q 235.48 473.0279999999999 235.48 476.0679999999999 L 235.48 486.5979999999999 L 232.51999999999998 486.5979999999999 L 232.51999999999998 459.7279999999999 Z" stroke-linecap="round" />
</g>
		<g transform="matrix(1 0 0 1 -35.33 226.8)"  >
<rect style="stroke: none; stroke-width: 1; stroke-dasharray: none; stroke-linecap: butt; stroke-dashoffset: 0; stroke-linejoin: miter; stroke-miterlimit: 4; fill: none; fill-rule: nonzero; opacity: 1;" vector-effect="non-scaling-stroke"  x="-7.6" y="-13.435" rx="0" ry="0" width="15.2" height="26.87" />
</g>
		<g transform="matrix(1 0 0 1 -16.3 230.09)"  >
<path style="stroke: none; stroke-width: 1; stroke-dasharray: none; stroke-linecap: butt; stroke-dashoffset: 0; stroke-linejoin: miter; stroke-miterlimit: 4; fill: rgb(161,2,23); fill-rule: nonzero; opacity: 1;" vector-effect="non-scaling-stroke"  transform=" translate(-259.65, -476.94)" d="M 264.85 475.728 L 264.85 474.968 Q 264.85 472.57800000000003 263.56 471.148 Q 262.27 469.728 259.99 469.728 Q 257.82 469.728 256.3 471.278 Q 254.78 472.838 254.52 475.728 Z M 266.64000000000004 482.798 L 266.64000000000004 485.608 Q 264.40000000000003 486.788 261.17 486.788 Q 256.8 486.788 254.12 484.108 Q 251.44 481.428 251.44 477.01800000000003 Q 251.44 472.418 253.82999999999998 469.75800000000004 Q 256.22999999999996 467.098 259.99 467.098 Q 263.6 467.098 265.73 469.418 Q 267.86 471.738 267.86 475.998 Q 267.86 477.20799999999997 267.67 478.238 L 254.52 478.238 Q 254.86 481.088 256.68 482.608 Q 258.51 484.128 261.47 484.128 Q 264.70000000000005 484.128 266.64000000000004 482.798" stroke-linecap="round" />
</g>
		<g transform="matrix(1 0 0 1 -15.8 230.58)"  >
<rect style="stroke: none; stroke-width: 1; stroke-dasharray: none; stroke-linecap: butt; stroke-dashoffset: 0; stroke-linejoin: miter; stroke-miterlimit: 4; fill: none; fill-rule: nonzero; opacity: 1;" vector-effect="non-scaling-stroke"  x="-8.21" y="-9.845" rx="0" ry="0" width="16.42" height="19.69" />
</g>
		<g transform="matrix(1 0 0 1 3.61 229.98)"  >
<path style="stroke: none; stroke-width: 1; stroke-dasharray: none; stroke-linecap: butt; stroke-dashoffset: 0; stroke-linejoin: miter; stroke-miterlimit: 4; fill: rgb(161,2,23); fill-rule: nonzero; opacity: 1;" vector-effect="non-scaling-stroke"  transform=" translate(-279.56, -476.83)" d="M 274.92 467.328 L 274.92 470.678 Q 276.63 467.068 281 467.068 Q 283.82 467.068 285.49 468.77799999999996 Q 287.16 470.48799999999994 287.16 473.33799999999997 L 287.16 486.59799999999996 L 284.16 486.59799999999996 L 284.16 474.12799999999993 Q 284.16 472.0079999999999 283.07000000000005 470.87799999999993 Q 281.99000000000007 469.7579999999999 280.24000000000007 469.7579999999999 Q 278.08000000000004 469.7579999999999 276.50000000000006 471.43799999999993 Q 274.9200000000001 473.10799999999995 274.9200000000001 476.0679999999999 L 274.9200000000001 486.5979999999999 L 271.9600000000001 486.5979999999999 L 271.9600000000001 467.3279999999999 Z" stroke-linecap="round" />
</g>
		<g transform="matrix(1 0 0 1 4.11 230.47)"  >
<rect style="stroke: none; stroke-width: 1; stroke-dasharray: none; stroke-linecap: butt; stroke-dashoffset: 0; stroke-linejoin: miter; stroke-miterlimit: 4; fill: none; fill-rule: nonzero; opacity: 1;" vector-effect="non-scaling-stroke"  x="-7.6" y="-9.765" rx="0" ry="0" width="15.2" height="19.53" />
</g>
		<g transform="matrix(1 0 0 1 31.3 233.41)"  >
<path style="stroke: none; stroke-width: 1; stroke-dasharray: none; stroke-linecap: butt; stroke-dashoffset: 0; stroke-linejoin: miter; stroke-miterlimit: 4; fill: rgb(161,2,23); fill-rule: nonzero; opacity: 1;" vector-effect="non-scaling-stroke"  transform=" translate(-307.26, -480.27)" d="M 306.16 486.098 L 298.37 467.32800000000003 L 301.75 467.32800000000003 L 304.26 473.67800000000005 L 307.64 482.41800000000006 Q 307.95 481.42800000000005 310.68 473.67800000000005 L 312.92 467.32800000000003 L 316.15000000000003 467.32800000000003 L 309.20000000000005 486.098 Q 307.72 490.01800000000003 305.68000000000006 491.608 Q 303.6500000000001 493.208 301.0300000000001 493.208 Q 300.0400000000001 493.208 299.43000000000006 493.01800000000003 L 299.43000000000006 490.31800000000004 Q 300.00000000000006 490.468 300.7300000000001 490.468 Q 304.56000000000006 490.468 306.1600000000001 486.098" stroke-linecap="round" />
</g>
		<g transform="matrix(1 0 0 1 31.8 233.91)"  >
<rect style="stroke: none; stroke-width: 1; stroke-dasharray: none; stroke-linecap: butt; stroke-dashoffset: 0; stroke-linejoin: miter; stroke-miterlimit: 4; fill: none; fill-rule: nonzero; opacity: 1;" vector-effect="non-scaling-stroke"  x="-8.89" y="-12.94" rx="0" ry="0" width="17.78" height="25.88" />
</g>
		<g transform="matrix(1 0 0 1 51.07 230.15)"  >
<path style="stroke: none; stroke-width: 1; stroke-dasharray: none; stroke-linecap: butt; stroke-dashoffset: 0; stroke-linejoin: miter; stroke-miterlimit: 4; fill: rgb(161,2,23); fill-rule: nonzero; opacity: 1;" vector-effect="non-scaling-stroke"  transform=" translate(-327.02, -477)" d="M 326.95 486.938 Q 322.8 486.938 320.39 484.14799999999997 Q 317.97999999999996 481.34799999999996 317.97999999999996 477.09799999999996 Q 317.97999999999996 472.79799999999994 320.46999999999997 469.92799999999994 Q 322.96 467.0679999999999 326.95 467.0679999999999 Q 331.32 467.0679999999999 333.69 469.87799999999993 Q 336.07 472.68799999999993 336.07 477.0179999999999 Q 336.07 481.3179999999999 333.63 484.12799999999993 Q 331.2 486.93799999999993 326.95 486.93799999999993 M 326.95 469.72799999999995 Q 324.21 469.72799999999995 322.65 471.84799999999996 Q 321.09 473.97799999999995 321.09 477.05799999999994 Q 321.09 480.05799999999994 322.69 482.16799999999995 Q 324.29 484.27799999999996 326.95 484.27799999999996 Q 329.83 484.27799999999996 331.39 482.20799999999997 Q 332.95 480.138 332.95 477.058 Q 332.95 473.868 331.46999999999997 471.798 Q 329.98999999999995 469.728 326.95 469.728" stroke-linecap="round" />
</g>
		<g transform="matrix(1 0 0 1 51.57 230.64)"  >
<rect style="stroke: none; stroke-width: 1; stroke-dasharray: none; stroke-linecap: butt; stroke-dashoffset: 0; stroke-linejoin: miter; stroke-miterlimit: 4; fill: none; fill-rule: nonzero; opacity: 1;" vector-effect="non-scaling-stroke"  x="-9.045" y="-9.935" rx="0" ry="0" width="18.09" height="19.87" />
</g>
		<g transform="matrix(1 0 0 1 71.44 230.22)"  >
<path style="stroke: none; stroke-width: 1; stroke-dasharray: none; stroke-linecap: butt; stroke-dashoffset: 0; stroke-linejoin: miter; stroke-miterlimit: 4; fill: rgb(161,2,23); fill-rule: nonzero; opacity: 1;" vector-effect="non-scaling-stroke"  transform=" translate(-347.39, -477.08)" d="M 351.99 467.328 L 354.99 467.328 L 354.99 486.59799999999996 L 351.99 486.59799999999996 L 351.99 483.24799999999993 Q 350.47 486.8279999999999 345.95 486.8279999999999 Q 343.09999999999997 486.8279999999999 341.44 485.12799999999993 Q 339.79 483.43799999999993 339.79 480.5879999999999 L 339.79 467.3279999999999 L 342.79 467.3279999999999 L 342.79 479.8279999999999 Q 342.79 481.9179999999999 343.86 483.0279999999999 Q 344.92 484.12799999999993 346.74 484.12799999999993 Q 349.14 484.12799999999993 350.56 482.4579999999999 Q 351.99 480.7779999999999 351.99 477.92799999999994 Z" stroke-linecap="round" />
</g>
		<g transform="matrix(1 0 0 1 71.94 230.72)"  >
<rect style="stroke: none; stroke-width: 1; stroke-dasharray: none; stroke-linecap: butt; stroke-dashoffset: 0; stroke-linejoin: miter; stroke-miterlimit: 4; fill: none; fill-rule: nonzero; opacity: 1;" vector-effect="non-scaling-stroke"  x="-7.6" y="-9.75" rx="0" ry="0" width="15.2" height="19.5" />
</g>
		<g transform="matrix(1 0 0 1 100.55 229.98)"  >
<path style="stroke: none; stroke-width: 1; stroke-dasharray: none; stroke-linecap: butt; stroke-dashoffset: 0; stroke-linejoin: miter; stroke-miterlimit: 4; fill: rgb(161,2,23); fill-rule: nonzero; opacity: 1;" vector-effect="non-scaling-stroke"  transform=" translate(-376.5, -476.83)" d="M 371.86 467.328 L 371.86 470.678 Q 373.57 467.068 377.94 467.068 Q 380.75 467.068 382.43 468.77799999999996 Q 384.1 470.48799999999994 384.1 473.33799999999997 L 384.1 486.59799999999996 L 381.1 486.59799999999996 L 381.1 474.12799999999993 Q 381.1 472.0079999999999 380.01000000000005 470.87799999999993 Q 378.93000000000006 469.7579999999999 377.18000000000006 469.7579999999999 Q 375.02000000000004 469.7579999999999 373.44000000000005 471.43799999999993 Q 371.86000000000007 473.10799999999995 371.86000000000007 476.0679999999999 L 371.86000000000007 486.5979999999999 L 368.9000000000001 486.5979999999999 L 368.9000000000001 467.3279999999999 Z" stroke-linecap="round" />
</g>
		<g transform="matrix(1 0 0 1 101.05 230.47)"  >
<rect style="stroke: none; stroke-width: 1; stroke-dasharray: none; stroke-linecap: butt; stroke-dashoffset: 0; stroke-linejoin: miter; stroke-miterlimit: 4; fill: none; fill-rule: nonzero; opacity: 1;" vector-effect="non-scaling-stroke"  x="-7.6" y="-9.765" rx="0" ry="0" width="15.2" height="19.53" />
</g>
		<g transform="matrix(1 0 0 1 120.07 230.09)"  >
<path style="stroke: none; stroke-width: 1; stroke-dasharray: none; stroke-linecap: butt; stroke-dashoffset: 0; stroke-linejoin: miter; stroke-miterlimit: 4; fill: rgb(161,2,23); fill-rule: nonzero; opacity: 1;" vector-effect="non-scaling-stroke"  transform=" translate(-396.03, -476.94)" d="M 401.24 475.728 L 401.24 474.968 Q 401.24 472.57800000000003 399.94 471.148 Q 398.65 469.728 396.37 469.728 Q 394.21 469.728 392.69 471.278 Q 391.17 472.838 390.9 475.728 Z M 403.02 482.798 L 403.02 485.608 Q 400.78 486.788 397.54999999999995 486.788 Q 393.17999999999995 486.788 390.49999999999994 484.108 Q 387.81999999999994 481.428 387.81999999999994 477.01800000000003 Q 387.81999999999994 472.418 390.2199999999999 469.75800000000004 Q 392.6099999999999 467.098 396.3699999999999 467.098 Q 399.9799999999999 467.098 402.1099999999999 469.418 Q 404.2399999999999 471.738 404.2399999999999 475.998 Q 404.2399999999999 477.20799999999997 404.0499999999999 478.238 L 390.9 478.238 Q 391.23999999999995 481.088 393.07 482.608 Q 394.89 484.128 397.84999999999997 484.128 Q 401.08 484.128 403.02 482.798" stroke-linecap="round" />
</g>
		<g transform="matrix(1 0 0 1 120.58 230.58)"  >
<rect style="stroke: none; stroke-width: 1; stroke-dasharray: none; stroke-linecap: butt; stroke-dashoffset: 0; stroke-linejoin: miter; stroke-miterlimit: 4; fill: none; fill-rule: nonzero; opacity: 1;" vector-effect="non-scaling-stroke"  x="-8.21" y="-9.845" rx="0" ry="0" width="16.42" height="19.69" />
</g>
		<g transform="matrix(1 0 0 1 139.45 230.09)"  >
<path style="stroke: none; stroke-width: 1; stroke-dasharray: none; stroke-linecap: butt; stroke-dashoffset: 0; stroke-linejoin: miter; stroke-miterlimit: 4; fill: rgb(161,2,23); fill-rule: nonzero; opacity: 1;" vector-effect="non-scaling-stroke"  transform=" translate(-415.41, -476.94)" d="M 420.62 475.728 L 420.62 474.968 Q 420.62 472.57800000000003 419.32 471.148 Q 418.03 469.728 415.75 469.728 Q 413.59 469.728 412.07 471.278 Q 410.55 472.838 410.28 475.728 Z M 422.4 482.798 L 422.4 485.608 Q 420.15999999999997 486.788 416.92999999999995 486.788 Q 412.55999999999995 486.788 409.87999999999994 484.108 Q 407.19999999999993 481.428 407.19999999999993 477.01800000000003 Q 407.19999999999993 472.418 409.5999999999999 469.75800000000004 Q 411.9899999999999 467.098 415.7499999999999 467.098 Q 419.3599999999999 467.098 421.4899999999999 469.418 Q 423.6199999999999 471.738 423.6199999999999 475.998 Q 423.6199999999999 477.20799999999997 423.4299999999999 478.238 L 410.2799999999999 478.238 Q 410.6199999999999 481.088 412.44999999999993 482.608 Q 414.2699999999999 484.128 417.2299999999999 484.128 Q 420.4599999999999 484.128 422.3999999999999 482.798" stroke-linecap="round" />
</g>
		<g transform="matrix(1 0 0 1 139.96 230.58)"  >
<rect style="stroke: none; stroke-width: 1; stroke-dasharray: none; stroke-linecap: butt; stroke-dashoffset: 0; stroke-linejoin: miter; stroke-miterlimit: 4; fill: none; fill-rule: nonzero; opacity: 1;" vector-effect="non-scaling-stroke"  x="-8.21" y="-9.845" rx="0" ry="0" width="16.42" height="19.69" />
</g>
		<g transform="matrix(1 0 0 1 159.2 226.46)"  >
<path style="stroke: none; stroke-width: 1; stroke-dasharray: none; stroke-linecap: butt; stroke-dashoffset: 0; stroke-linejoin: miter; stroke-miterlimit: 4; fill: rgb(161,2,23); fill-rule: nonzero; opacity: 1;" vector-effect="non-scaling-stroke"  transform=" translate(-435.15, -473.31)" d="M 435.06 484.168 Q 437.41 484.168 439.06 482.418 Q 440.72 480.668 440.72 476.82800000000003 Q 440.72 473.17800000000005 439.01000000000005 471.468 Q 437.30000000000007 469.75800000000004 435.25000000000006 469.75800000000004 Q 432.8500000000001 469.75800000000004 431.27000000000004 471.67800000000005 Q 429.70000000000005 473.59800000000007 429.70000000000005 477.16800000000006 Q 429.70000000000005 480.28800000000007 431.22 482.22800000000007 Q 432.74 484.16800000000006 435.06 484.16800000000006 M 440.72 459.72800000000007 L 443.72 459.72800000000007 L 443.72 486.59800000000007 L 440.72 486.59800000000007 L 440.72 483.74800000000005 Q 438.67 486.898 434.79 486.898 Q 430.95000000000005 486.898 428.77000000000004 484.048 Q 426.58000000000004 481.198 426.58000000000004 477.138 Q 426.58000000000004 472.608 428.90000000000003 469.818 Q 431.22 467.02799999999996 434.87000000000006 467.02799999999996 Q 438.63000000000005 467.02799999999996 440.7200000000001 470.258 Z" stroke-linecap="round" />
</g>
		<g transform="matrix(1 0 0 1 159.7 226.95)"  >
<rect style="stroke: none; stroke-width: 1; stroke-dasharray: none; stroke-linecap: butt; stroke-dashoffset: 0; stroke-linejoin: miter; stroke-miterlimit: 4; fill: none; fill-rule: nonzero; opacity: 1;" vector-effect="non-scaling-stroke"  x="-8.57" y="-13.585" rx="0" ry="0" width="17.14" height="27.17" />
</g>
		<g transform="matrix(1 0 0 1 -74.58 -105.05)"  >
<path style="stroke: none; stroke-width: 1; stroke-dasharray: none; stroke-linecap: butt; stroke-dashoffset: 0; stroke-linejoin: miter; stroke-miterlimit: 4; fill: rgb(161,2,23); fill-rule: nonzero; opacity: 1;" vector-effect="non-scaling-stroke"  transform=" translate(-201.37, -141.81)" d="M 287.06 95.032 C 276.870352412525 95.0233810145366 267.03035832260196 98.74686238322263 259.399 105.499 C 251.763452007445 98.74921363180343 241.92223032992703 95.02620989829971 231.731 95.03199999999998 C 208.694 95.032 189.953 113.779 189.953 136.822 C 189.953 185.594 254.054 207.078 256.775 207.974 C 258.48997738340665 208.54125161281286 260.3420226165932 208.54125161281286 262.05699999999996 207.974 C 264.777 207.084 328.86699999999996 185.599 328.86699999999996 136.822 C 328.86199999999997 113.779 310.10299999999995 95.03200000000001 287.05999999999995 95.03200000000001 M 259.41599999999994 190.847 C 248.42099999999994 186.625 206.95399999999995 168.58700000000002 206.95399999999995 136.822 C 206.96666909414944 123.14151029580246 218.05051726674435 112.05274133659503 231.73099999999994 112.034 C 240.00599999999994 112.034 247.70699999999994 116.15400000000001 252.34299999999993 123.039 C 253.92078789070797 125.39329883189556 256.56873219879077 126.80570796951847 259.40283463348396 126.8047041788991 C 262.2369370681772 126.80370038827975 264.8838802097112 125.3894158920645 266.4599999999999 123.034 C 271.056950392975 116.15519583743404 278.7865569207719 112.02773604103766 287.05999999999995 112.034 C 300.7479305174109 112.0461110743879 311.84395293989866 123.13408188018596 311.86599999999993 136.822 C 311.86599999999993 168.592 270.4099999999999 186.625 259.41599999999994 190.847 M 387.92599999999993 73.46300000000001 L 327.7559999999999 73.46300000000001 L 327.7559999999999 13.293000000000006 C 327.7559999999999 8.598579626438262 323.95042037356166 4.793000000000006 319.2559999999999 4.793000000000006 L 199.564 4.793000000000006 C 194.86957962643825 4.793000000000006 191.064 8.598579626438262 191.064 13.293000000000006 L 191.064 73.46300000000001 L 130.894 73.46300000000001 C 126.19957962643826 73.46300000000001 122.394 77.26857962643827 122.394 81.96300000000001 L 122.394 201.598 C 122.394 206.29242037356175 126.19957962643826 210.098 130.894 210.098 L 191.06400000000002 210.098 L 191.06400000000002 270.324 C 191.06400000000002 275.01842037356175 194.86957962643828 278.824 199.56400000000002 278.824 L 319.25600000000003 278.824 C 323.95042037356177 278.824 327.75600000000003 275.01842037356175 327.75600000000003 270.324 L 327.75600000000003 210.1 L 387.92600000000004 210.1 C 390.18051343535694 210.10000001560218 392.3426732553269 209.2043296026339 393.93676122110577 207.6100540970943 C 395.53084918688467 206.0157785915547 396.42626523687477 203.8535134197547 396.42600000000004 201.599 L 396.42600000000004 81.963 C 396.42600000000004 77.26857962643825 392.6204203735618 73.463 387.92600000000004 73.463 M 379.42400000000004 193.09699999999998 L 319.25600000000003 193.09699999999998 C 317.00131330751134 193.09673472713501 314.8388965618283 193.9922880403395 313.2445923010839 195.5865923010839 C 311.65028804033955 197.18089656182826 310.7547347271351 199.3433133075113 310.75500000000005 201.59799999999998 L 310.75500000000005 261.823 L 208.06500000000005 261.823 L 208.06500000000005 201.59799999999998 C 208.06500000000005 196.90357962643824 204.2594203735618 193.09799999999998 199.56500000000005 193.09799999999998 L 139.39500000000004 193.09799999999998 L 139.39500000000004 90.463 L 199.56500000000005 90.463 C 204.2594203735618 90.463 208.06500000000005 86.65742037356173 208.06500000000005 81.963 L 208.06500000000005 21.792999999999992 L 310.75500000000005 21.792999999999992 L 310.75500000000005 81.963 C 310.75500000000005 86.65742037356173 314.5605796264383 90.463 319.25500000000005 90.463 L 379.42500000000007 90.463 z M 6.32 251.928 L 6.32 210.768 L 24.36 210.768 L 24.36 216.258 L 12.54 216.258 L 12.54 227.62800000000001 L 22.06 227.62800000000001 L 22.06 233.228 L 12.54 233.228 L 12.54 246.388 L 26.2 246.388 L 26.2 251.928 Z" stroke-linecap="round" />
</g>
		<g transform="matrix(1 0 0 1 -259.19 -15.01)"  >
<rect style="stroke: none; stroke-width: 1; stroke-dasharray: none; stroke-linecap: butt; stroke-dashoffset: 0; stroke-linejoin: miter; stroke-miterlimit: 4; fill: none; fill-rule: nonzero; opacity: 1;" vector-effect="non-scaling-stroke"  x="-9.94" y="-20.58" rx="0" ry="0" width="19.88" height="41.16" />
</g>
		<g transform="matrix(1 0 0 1 -233.23 -15.53)"  >
<path style="stroke: none; stroke-width: 1; stroke-dasharray: none; stroke-linecap: butt; stroke-dashoffset: 0; stroke-linejoin: miter; stroke-miterlimit: 4; fill: rgb(161,2,23); fill-rule: nonzero; opacity: 1;" vector-effect="non-scaling-stroke"  transform=" translate(-42.72, -231.32)" d="M 41.83 252.488 Q 39.48 252.488 37.18 251.908 Q 34.88 251.31799999999998 33.09 250.44799999999998 Q 31.300000000000004 249.57799999999997 30.400000000000002 248.688 L 33.370000000000005 243.368 Q 33.99 243.868 35.300000000000004 244.678 Q 36.620000000000005 245.488 38.36000000000001 246.108 Q 40.09 246.728 41.830000000000005 246.728 Q 44.68000000000001 246.728 46.620000000000005 245.37800000000001 Q 48.550000000000004 244.038 48.550000000000004 241.45800000000003 Q 48.550000000000004 239.32800000000003 47.43000000000001 237.92800000000003 Q 46.31000000000001 236.52800000000002 44.49000000000001 235.46800000000002 Q 42.67000000000001 234.40800000000002 40.57000000000001 233.42800000000003 Q 38.470000000000006 232.44800000000004 36.56000000000001 231.20800000000003 Q 34.38000000000001 229.75800000000004 32.76000000000001 227.348 Q 31.130000000000013 224.93800000000002 31.130000000000013 221.12800000000001 Q 31.130000000000013 217.37800000000001 32.84000000000001 214.96800000000002 Q 34.55000000000001 212.568 37.38000000000001 211.358 Q 40.20000000000001 210.15800000000002 43.56000000000001 210.15800000000002 Q 46.25000000000001 210.15800000000002 48.16000000000001 210.71800000000002 Q 50.06000000000001 211.27800000000002 51.35000000000001 212.05800000000002 Q 52.64000000000001 212.848 53.36000000000001 213.45800000000003 L 50.400000000000006 218.55800000000002 Q 49.440000000000005 217.54800000000003 47.540000000000006 216.67800000000003 Q 45.64000000000001 215.80800000000002 43.28000000000001 215.80800000000002 Q 40.540000000000006 215.80800000000002 38.92000000000001 217.068 Q 37.290000000000006 218.328 37.290000000000006 220.798 Q 37.290000000000006 222.978 38.75000000000001 224.518 Q 40.20000000000001 226.058 42.470000000000006 227.318 Q 44.74000000000001 228.578 47.150000000000006 229.86800000000002 Q 49.56 231.15800000000002 51.400000000000006 232.88800000000003 Q 52.92000000000001 234.23800000000003 53.980000000000004 236.24800000000005 Q 55.040000000000006 238.26800000000006 55.040000000000006 240.78800000000004 Q 55.040000000000006 244.59800000000004 53.28000000000001 247.22800000000004 Q 51.52000000000001 249.85800000000003 48.55000000000001 251.17800000000003 Q 45.58000000000001 252.48800000000003 41.83000000000001 252.48800000000003" stroke-linecap="round" />
</g>
		<g transform="matrix(1 0 0 1 -232.73 -15.03)"  >
<rect style="stroke: none; stroke-width: 1; stroke-dasharray: none; stroke-linecap: butt; stroke-dashoffset: 0; stroke-linejoin: miter; stroke-miterlimit: 4; fill: none; fill-rule: nonzero; opacity: 1;" vector-effect="non-scaling-stroke"  x="-12.32" y="-21.165" rx="0" ry="0" width="24.64" height="42.33" />
</g>
		<g transform="matrix(1 0 0 1 -204.87 -15.51)"  >
<path style="stroke: none; stroke-width: 1; stroke-dasharray: none; stroke-linecap: butt; stroke-dashoffset: 0; stroke-linejoin: miter; stroke-miterlimit: 4; fill: rgb(161,2,23); fill-rule: nonzero; opacity: 1;" vector-effect="non-scaling-stroke"  transform=" translate(-71.09, -231.35)" d="M 67.92 251.928 L 67.92 216.25799999999998 L 57.4 216.25799999999998 L 57.4 210.76799999999997 L 84.78 210.76799999999997 L 84.78 216.25799999999998 L 74.14 216.25799999999998 L 74.14 251.928 Z" stroke-linecap="round" />
</g>
		<g transform="matrix(1 0 0 1 -204.37 -15.01)"  >
<rect style="stroke: none; stroke-width: 1; stroke-dasharray: none; stroke-linecap: butt; stroke-dashoffset: 0; stroke-linejoin: miter; stroke-miterlimit: 4; fill: none; fill-rule: nonzero; opacity: 1;" vector-effect="non-scaling-stroke"  x="-13.69" y="-20.58" rx="0" ry="0" width="27.38" height="41.16" />
</g>
		<g transform="matrix(1 0 0 1 -188.71 1.63)"  >
<path style="stroke: none; stroke-width: 1; stroke-dasharray: none; stroke-linecap: butt; stroke-dashoffset: 0; stroke-linejoin: miter; stroke-miterlimit: 4; fill: rgb(161,2,23); fill-rule: nonzero; opacity: 1;" vector-effect="non-scaling-stroke"  transform=" translate(-87.25, -248.49)" d="M 87.24 252.488 Q 85.55999999999999 252.488 84.39 251.348 Q 83.21 250.198 83.21 248.518 Q 83.21 246.778 84.36 245.62800000000001 Q 85.51 244.48800000000003 87.24 244.48800000000003 Q 89.03999999999999 244.48800000000003 90.16 245.62800000000001 Q 91.28 246.77800000000002 91.28 248.518 Q 91.28 250.198 90.13 251.348 Q 88.97999999999999 252.488 87.24 252.488" stroke-linecap="round" />
</g>
		<g transform="matrix(1 0 0 1 -188.21 2.14)"  >
<rect style="stroke: none; stroke-width: 1; stroke-dasharray: none; stroke-linecap: butt; stroke-dashoffset: 0; stroke-linejoin: miter; stroke-miterlimit: 4; fill: none; fill-rule: nonzero; opacity: 1;" vector-effect="non-scaling-stroke"  x="-4.035" y="-4" rx="0" ry="0" width="8.07" height="8" />
</g>
		<g transform="matrix(1 0 0 1 167.71 -15.87)"  >
<path style="stroke: none; stroke-width: 1; stroke-dasharray: none; stroke-linecap: butt; stroke-dashoffset: 0; stroke-linejoin: miter; stroke-miterlimit: 4; fill: rgb(161,2,23); fill-rule: nonzero; opacity: 1;" vector-effect="non-scaling-stroke"  transform=" translate(-443.66, -230.99)" d="M 431.91 248.538 L 443.52000000000004 234.018 Q 444.46000000000004 232.798 445.66 231.038 Q 446.85 229.268 447.77000000000004 227.36800000000002 Q 448.69000000000005 225.46800000000002 448.69000000000005 223.818 Q 448.69000000000005 221.238 447.30000000000007 219.828 Q 445.9100000000001 218.418 443.14000000000004 218.418 Q 441.21000000000004 218.418 439.90000000000003 219.258 Q 438.58000000000004 220.108 437.76000000000005 221.238 Q 436.94000000000005 222.368 436.47 223.258 L 432.1 220.90800000000002 Q 432.99 219.21800000000002 434.42 217.49800000000002 Q 435.86 215.788 438.02000000000004 214.60800000000003 Q 440.18000000000006 213.43800000000005 443.28000000000003 213.43800000000005 Q 446.85 213.43800000000005 449.25000000000006 214.69800000000004 Q 451.65000000000003 215.96800000000005 452.8500000000001 218.17800000000003 Q 454.0400000000001 220.38800000000003 454.0400000000001 223.20800000000003 Q 454.0400000000001 226.21800000000002 452.56000000000006 229.36800000000002 Q 451.08000000000004 232.51800000000003 448.40000000000003 235.80800000000002 L 442.01000000000005 243.88800000000003 L 455.41 243.88800000000003 L 455.41 248.53800000000004 Z" stroke-linecap="round" />
</g>
		<g transform="matrix(1 0 0 1 168.21 -15.36)"  >
<rect style="stroke: none; stroke-width: 1; stroke-dasharray: none; stroke-linecap: butt; stroke-dashoffset: 0; stroke-linejoin: miter; stroke-miterlimit: 4; fill: none; fill-rule: nonzero; opacity: 1;" vector-effect="non-scaling-stroke"  x="-11.75" y="-17.55" rx="0" ry="0" width="23.5" height="35.1" />
</g>
		<g transform="matrix(1 0 0 1 197.01 -15.51)"  >
<path style="stroke: none; stroke-width: 1; stroke-dasharray: none; stroke-linecap: butt; stroke-dashoffset: 0; stroke-linejoin: miter; stroke-miterlimit: 4; fill: rgb(161,2,23); fill-rule: nonzero; opacity: 1;" vector-effect="non-scaling-stroke"  transform=" translate(-472.96, -231.34)" d="M 472.99 249.248 Q 469.55 249.248 467.16 247.838 Q 464.76000000000005 246.428 463.26000000000005 243.958 Q 461.75000000000006 241.488 461.07000000000005 238.228 Q 460.39000000000004 234.958 460.39000000000004 231.298 Q 460.39000000000004 227.488 461.05000000000007 224.248 Q 461.7100000000001 220.998 463.1600000000001 218.578 Q 464.62000000000006 216.15800000000002 467.0400000000001 214.798 Q 469.4600000000001 213.438 472.99000000000007 213.438 Q 477.69000000000005 213.438 480.4100000000001 215.738 Q 483.1400000000001 218.038 484.3400000000001 222.058 Q 485.5300000000001 226.078 485.5300000000001 231.298 Q 485.5300000000001 236.318 484.2900000000001 240.40800000000002 Q 483.0400000000001 244.49800000000002 480.2900000000001 246.87800000000001 Q 477.5400000000001 249.24800000000002 472.99000000000007 249.24800000000002 M 472.99000000000007 244.45800000000003 Q 475.1000000000001 244.45800000000003 476.44000000000005 243.32800000000003 Q 477.78000000000003 242.19800000000004 478.51000000000005 240.26800000000003 Q 479.24000000000007 238.34800000000004 479.52000000000004 236.01800000000003 Q 479.8 233.68800000000002 479.8 231.29800000000003 Q 479.8 228.65800000000004 479.52000000000004 226.30800000000002 Q 479.24000000000007 223.958 478.51000000000005 222.12800000000001 Q 477.78000000000003 220.298 476.44000000000005 219.23800000000003 Q 475.1000000000001 218.17800000000003 472.99000000000007 218.17800000000003 Q 470.87000000000006 218.17800000000003 469.51000000000005 219.23800000000003 Q 468.14000000000004 220.29800000000003 467.4200000000001 222.12800000000001 Q 466.69000000000005 223.95800000000003 466.4100000000001 226.30800000000002 Q 466.12000000000006 228.65800000000002 466.12000000000006 231.29800000000003 Q 466.12000000000006 233.68800000000002 466.4100000000001 236.01800000000003 Q 466.69000000000005 238.34800000000004 467.4200000000001 240.24800000000002 Q 468.1400000000001 242.14800000000002 469.51000000000005 243.29800000000003 Q 470.87000000000006 244.45800000000003 472.99000000000007 244.45800000000003" stroke-linecap="round" />
</g>
		<g transform="matrix(1 0 0 1 197.51 -15.02)"  >
<rect style="stroke: none; stroke-width: 1; stroke-dasharray: none; stroke-linecap: butt; stroke-dashoffset: 0; stroke-linejoin: miter; stroke-miterlimit: 4; fill: none; fill-rule: nonzero; opacity: 1;" vector-effect="non-scaling-stroke"  x="-12.57" y="-17.905" rx="0" ry="0" width="25.14" height="35.81" />
</g>
		<g transform="matrix(1 0 0 1 225.52 -15.87)"  >
<path style="stroke: none; stroke-width: 1; stroke-dasharray: none; stroke-linecap: butt; stroke-dashoffset: 0; stroke-linejoin: miter; stroke-miterlimit: 4; fill: rgb(161,2,23); fill-rule: nonzero; opacity: 1;" vector-effect="non-scaling-stroke"  transform=" translate(-501.47, -230.99)" d="M 489.72 248.538 L 501.33000000000004 234.018 Q 502.27000000000004 232.798 503.47 231.038 Q 504.66 229.268 505.58000000000004 227.36800000000002 Q 506.50000000000006 225.46800000000002 506.50000000000006 223.818 Q 506.50000000000006 221.238 505.11000000000007 219.828 Q 503.7200000000001 218.418 500.95000000000005 218.418 Q 499.02000000000004 218.418 497.71000000000004 219.258 Q 496.39000000000004 220.108 495.57000000000005 221.238 Q 494.75000000000006 222.368 494.28000000000003 223.258 L 489.91 220.90800000000002 Q 490.8 219.21800000000002 492.23 217.49800000000002 Q 493.67 215.788 495.83000000000004 214.60800000000003 Q 497.99000000000007 213.43800000000005 501.09000000000003 213.43800000000005 Q 504.66 213.43800000000005 507.06000000000006 214.69800000000004 Q 509.46000000000004 215.96800000000005 510.6600000000001 218.17800000000003 Q 511.8500000000001 220.38800000000003 511.8500000000001 223.20800000000003 Q 511.8500000000001 226.21800000000002 510.37000000000006 229.36800000000002 Q 508.89000000000004 232.51800000000003 506.21000000000004 235.80800000000002 L 499.82000000000005 243.88800000000003 L 513.22 243.88800000000003 L 513.22 248.53800000000004 Z" stroke-linecap="round" />
</g>
		<g transform="matrix(1 0 0 1 226.02 -15.36)"  >
<rect style="stroke: none; stroke-width: 1; stroke-dasharray: none; stroke-linecap: butt; stroke-dashoffset: 0; stroke-linejoin: miter; stroke-miterlimit: 4; fill: none; fill-rule: nonzero; opacity: 1;" vector-effect="non-scaling-stroke"  x="-11.75" y="-17.55" rx="0" ry="0" width="23.5" height="35.1" />
</g>
		<g transform="matrix(1 0 0 1 254.14 -15.23)"  >
<path style="stroke: none; stroke-width: 1; stroke-dasharray: none; stroke-linecap: butt; stroke-dashoffset: 0; stroke-linejoin: miter; stroke-miterlimit: 4; fill: rgb(161,2,23); fill-rule: nonzero; opacity: 1;" vector-effect="non-scaling-stroke"  transform=" translate(-530.09, -231.62)" d="M 528.82 249.248 Q 525.72 249.248 523.11 248.44799999999998 Q 520.5 247.64799999999997 518.72 246.09799999999998 L 521.11 241.678 Q 521.54 242.008 522.59 242.648 Q 523.65 243.278 525.23 243.798 Q 526.8000000000001 244.308 528.6800000000001 244.308 Q 531.83 244.308 533.9000000000001 242.528 Q 535.9700000000001 240.738 535.9700000000001 237.588 Q 535.9700000000001 235.84799999999998 535.2400000000001 234.328 Q 534.5100000000001 232.798 532.7900000000001 231.838 Q 531.08 230.868 528.1200000000001 230.868 Q 526.7100000000002 230.868 525.1800000000001 231.03799999999998 Q 523.6500000000001 231.19799999999998 522.3800000000001 231.47799999999998 Q 521.1100000000001 231.76799999999997 520.4600000000002 232.13799999999998 L 521.1600000000002 213.998 L 538.8800000000002 213.998 L 538.8800000000002 218.608 L 526.2800000000002 218.608 L 525.8100000000002 226.778 Q 526.4700000000001 226.59799999999998 527.4400000000002 226.498 Q 528.4000000000002 226.408 529.7600000000002 226.408 Q 535.2100000000003 226.408 538.3400000000003 229.248 Q 541.4600000000003 232.088 541.4600000000003 237.078 Q 541.4600000000003 240.648 539.9800000000002 243.398 Q 538.5000000000002 246.148 535.6800000000003 247.698 Q 532.8600000000002 249.24800000000002 528.8200000000003 249.24800000000002" stroke-linecap="round" />
</g>
		<g transform="matrix(1 0 0 1 254.64 -14.74)"  >
<rect style="stroke: none; stroke-width: 1; stroke-dasharray: none; stroke-linecap: butt; stroke-dashoffset: 0; stroke-linejoin: miter; stroke-miterlimit: 4; fill: none; fill-rule: nonzero; opacity: 1;" vector-effect="non-scaling-stroke"  x="-11.37" y="-17.625" rx="0" ry="0" width="22.74" height="35.25" />
</g>
</g>
</g>
</svg>